<mxfile host="app.diagrams.net" modified="2023-11-08T22:56:32.854Z" agent="Mozilla/5.0 (Windows NT 10.0; Win64; x64) AppleWebKit/537.36 (KHTML, like Gecko) Chrome/119.0.0.0 Safari/537.36" etag="5UmL85y1YQB1H8TDqyrD" version="22.1.0" type="device">
  <diagram name="Page-1" id="6S5Bs2WwU_J8CWzjllh4">
    <mxGraphModel dx="882" dy="614" grid="1" gridSize="10" guides="1" tooltips="1" connect="1" arrows="1" fold="1" page="1" pageScale="1" pageWidth="827" pageHeight="1169" math="0" shadow="0">
      <root>
        <mxCell id="0" />
        <mxCell id="1" parent="0" />
        <mxCell id="sL3GfZB3y70Jr0FUmJvo-1" value="" style="group;fontSize=16;" parent="1" vertex="1" connectable="0">
          <mxGeometry x="300" y="94" width="240" height="386" as="geometry" />
        </mxCell>
        <mxCell id="Rjbj1c0og_Jh--f2ZAxI-1" value="Linear (size W)" style="rounded=1;whiteSpace=wrap;html=1;fillColor=#dae8fc;strokeColor=#000000;strokeWidth=2;fontSize=16;" parent="sL3GfZB3y70Jr0FUmJvo-1" vertex="1">
          <mxGeometry y="218.75554221388367" width="177.33990147783248" height="35.28315196998124" as="geometry" />
        </mxCell>
        <mxCell id="Rjbj1c0og_Jh--f2ZAxI-2" value="Inputs" style="text;html=1;strokeColor=none;fillColor=none;align=center;verticalAlign=middle;whiteSpace=wrap;rounded=0;fontSize=18;" parent="sL3GfZB3y70Jr0FUmJvo-1" vertex="1">
          <mxGeometry x="19.04" y="346.95" width="139.26" height="39.05" as="geometry" />
        </mxCell>
        <mxCell id="Rjbj1c0og_Jh--f2ZAxI-8" value="" style="endArrow=classic;html=1;rounded=0;strokeWidth=2;fontSize=16;" parent="sL3GfZB3y70Jr0FUmJvo-1" edge="1">
          <mxGeometry width="50" height="50" relative="1" as="geometry">
            <mxPoint x="89.85221674876846" y="354.0076247654784" as="sourcePoint" />
            <mxPoint x="89.85221674876846" y="306.9634221388368" as="targetPoint" />
          </mxGeometry>
        </mxCell>
        <mxCell id="Rjbj1c0og_Jh--f2ZAxI-10" value="Linear (size W)" style="rounded=1;whiteSpace=wrap;html=1;fillColor=#dae8fc;strokeColor=#000000;strokeWidth=2;fontSize=16;" parent="sL3GfZB3y70Jr0FUmJvo-1" vertex="1">
          <mxGeometry y="265.7997448405253" width="177.33990147783248" height="35.28315196998124" as="geometry" />
        </mxCell>
        <mxCell id="Rjbj1c0og_Jh--f2ZAxI-11" value="Linear (size W)" style="rounded=1;whiteSpace=wrap;html=1;fillColor=#dae8fc;strokeColor=#000000;strokeWidth=2;fontSize=16;" parent="sL3GfZB3y70Jr0FUmJvo-1" vertex="1">
          <mxGeometry y="171.711339587242" width="177.33990147783248" height="35.28315196998124" as="geometry" />
        </mxCell>
        <mxCell id="Rjbj1c0og_Jh--f2ZAxI-13" value="Output Probabilities" style="text;html=1;strokeColor=none;fillColor=none;align=center;verticalAlign=middle;whiteSpace=wrap;rounded=0;fontSize=18;" parent="sL3GfZB3y70Jr0FUmJvo-1" vertex="1">
          <mxGeometry x="6.079999999999999" y="8.47" width="167.54" height="35.28" as="geometry" />
        </mxCell>
        <mxCell id="Rjbj1c0og_Jh--f2ZAxI-14" value="" style="endArrow=classic;html=1;rounded=0;strokeWidth=2;fontSize=16;" parent="sL3GfZB3y70Jr0FUmJvo-1" edge="1">
          <mxGeometry width="50" height="50" relative="1" as="geometry">
            <mxPoint x="87.26108374384235" y="78.50826266416509" as="sourcePoint" />
            <mxPoint x="87.85221674876846" y="44.40121575984991" as="targetPoint" />
          </mxGeometry>
        </mxCell>
        <mxCell id="Rjbj1c0og_Jh--f2ZAxI-16" value="&lt;font style=&quot;font-size: 16px;&quot;&gt;&lt;b style=&quot;font-size: 16px;&quot;&gt;...&lt;/b&gt;&lt;/font&gt;" style="text;html=1;strokeColor=none;fillColor=none;align=center;verticalAlign=middle;whiteSpace=wrap;rounded=0;fontSize=16;rotation=-90;" parent="sL3GfZB3y70Jr0FUmJvo-1" vertex="1">
          <mxGeometry x="47.29064039408867" y="138.78039774859286" width="70.935960591133" height="35.28315196998124" as="geometry" />
        </mxCell>
        <mxCell id="Rjbj1c0og_Jh--f2ZAxI-19" value="more Linear layers" style="rounded=1;whiteSpace=wrap;html=1;fillColor=#dae8fc;strokeColor=#000000;strokeWidth=2;fontSize=16;" parent="sL3GfZB3y70Jr0FUmJvo-1" vertex="1">
          <mxGeometry x="1.1822660098522166" y="105.84945590994371" width="177.33990147783248" height="35.28315196998124" as="geometry" />
        </mxCell>
        <mxCell id="Rjbj1c0og_Jh--f2ZAxI-20" value="&lt;font style=&quot;font-size: 16px;&quot;&gt;&lt;b style=&quot;font-size: 16px;&quot;&gt;...&lt;/b&gt;&lt;/font&gt;" style="text;html=1;strokeColor=none;fillColor=none;align=center;verticalAlign=middle;whiteSpace=wrap;rounded=0;fontSize=16;rotation=-90;" parent="sL3GfZB3y70Jr0FUmJvo-1" vertex="1">
          <mxGeometry x="47.29064039408867" y="73.74240900562852" width="70.935960591133" height="35.28315196998124" as="geometry" />
        </mxCell>
        <mxCell id="Rjbj1c0og_Jh--f2ZAxI-21" value="Lx" style="text;html=1;strokeColor=none;fillColor=none;align=center;verticalAlign=top;whiteSpace=wrap;rounded=0;fontSize=18;" parent="sL3GfZB3y70Jr0FUmJvo-1" vertex="1">
          <mxGeometry x="169.064039408867" y="105.84945590994371" width="70.935960591133" height="35.28315196998124" as="geometry" />
        </mxCell>
      </root>
    </mxGraphModel>
  </diagram>
</mxfile>
